# xmcd
#
# Track frame offsets: 
#        150
#        11565
#        21100
#        31667
#        45062
#        57289
#        70119
#        80911
#        93534
#        102939
#        116516
#        127066
#        136854
#        151741
#        164156
#        173424
#        181631
#        193243
#        205855
#        215398
#        227035
#        236940
#        248048
#        259655
#        273047
#        287397
#        298679
#        309711
#
# Disc length: 4304 seconds
#
# Revision: 0
# Processed by: cddbd v1.5.1PL0 Copyright (c) Steve Scherf et al.
# Submitted via: ExactAudioCopy v0.95a5
#
DISCID=8010ce1c
DTITLE=Various Artist - Sony-ATV Country Music [CD1: 1956-1967)
DYEAR=2003
DGENRE=Country
TTITLE0=Ray Price - Crazy Arms
TTITLE1=Elvis Presley - Heartbreak Hotel
TTITLE2=Conway Twitty - It's Only Make Believe
TTITLE3=Ray Price - Heartaches By The Number
TTITLE4=Patsy Cline - Crazy
TTITLE5=Billy Walker - Funny How Time Slips Away
TTITLE6=Faron Young - Hello Walls
TTITLE7=Patsy Cline - I Fall To Pieces
TTITLE8=Burl Ives - A Little Bitty Tear
TTITLE9=Patsy Cline - She's Got You
TTITLE10=Buck Owens - Act Naturally
TTITLE11=Ray Charles - Busted
TTITLE12=Ray Price - Night Life
TTITLE13=Roy Clark - Tip Of My Fingers
TTITLE14=Roger Miller - Chug-A-Lug
TTITLE15=Roger Miller - Dang Me
TTITLE16=Dottie West - Here Comes My Baby Back Again
TTITLE17=Roy Orbison - Pretty Paper
TTITLE18=George Jones - The Race Is On
TTITLE19=Jim Reeves - Welcome To My World
TTITLE20=Buck Owens - I've Got A Tiger By The Tail
TTITLE21=Roger Miller - King Of The Road
TTITLE22=Eddy Arnold - Make The World Go Away
TTITLE23=Ray Charles - Cryin' Time
TTITLE24=Jeannie Seely - Don't Touch Me
TTITLE25=Tom Jones - Green Green Grass Of Home
TTITLE26=Mel Tillis - Life Turned Her That Way
TTITLE27=Waylon Jennings - Love Of The Common People
EXTD=
EXTT0=
EXTT1=
EXTT2=
EXTT3=
EXTT4=
EXTT5=
EXTT6=
EXTT7=
EXTT8=
EXTT9=
EXTT10=
EXTT11=
EXTT12=
EXTT13=
EXTT14=
EXTT15=
EXTT16=
EXTT17=
EXTT18=
EXTT19=
EXTT20=
EXTT21=
EXTT22=
EXTT23=
EXTT24=
EXTT25=
EXTT26=
EXTT27=
PLAYORDER=
